<svg xmlns="http://www.w3.org/2000/svg" class="svg" viewBox="0 0 156.19 93.44"><title>group_people</title><path d="M110.61 42.23a12.67 12.67 0 1 1-12.67-12.68 12.67 12.67 0 0 1 12.67 12.68zM91.55 54.11L79.94 83.69s2.11 9.25 17.91 9.25 18.11-9.25 18.11-9.25l-12-29.59M83.68 39.95c20.93 2.89 23.17-6.47 23.17-6.47m-2.6 3.51a6.63 6.63 0 0 0 6.11 3.51M78.08 5.69A12.67 12.67 0 1 0 90.76 18.4 12.67 12.67 0 0 0 78.08 5.69zm6 24.56l3.14 5.14M70.9 68.37a31 31 0 0 0 7.06.74 31 31 0 0 0 7.3-.8m-13.57-38l-2.84 4.52m-5-21.66C84.39 20.36 87 9.69 87 9.69m-2.6 3.51a6.63 6.63 0 0 0 6.1 3.49m47.15 12.86a12.67 12.67 0 1 0 12.67 12.67 12.67 12.67 0 0 0-12.67-12.67zm-6.4 24.56l-11.6 29.58s2.11 9.24 17.88 9.24 18.14-9.24 18.14-9.24l-12-29.59m-15.19-20.62s5.14 10.5 23.17 2.5m-26.68 4.53a6.63 6.63 0 0 0 6.11-3.51m6.51-10.23a3.23 3.23 0 1 0-3.23 3.23 3.23 3.23 0 0 0 3.23-3.24zM88.35 3.69a3.23 3.23 0 1 0-3.23 3.23 3.23 3.23 0 0 0 3.23-3.23zm29.44 2a12.67 12.67 0 1 0 12.68 12.71 12.67 12.67 0 0 0-12.68-12.71zm9.16 29.7l-3.1-5.1m-13.24 38.08a33.87 33.87 0 0 0 14.36-.05m-13.57-38l-2.89 4.54m.12-25.17s2.22 9.32 23.22 6.44m-26.73.56a6.63 6.63 0 0 0 6.11-3.51M18.52 29.55A12.67 12.67 0 0 0 5.85 42.23 12.67 12.67 0 0 0 18.52 54.9 12.67 12.67 0 0 0 31.2 42.23a12.67 12.67 0 0 0-12.68-12.68zm-6.39 24.56L.52 83.69s2.11 9.24 17.88 9.24 18.14-9.24 18.14-9.24l-12-29.59M4.26 39.95c20.93 2.88 23.17-6.47 23.17-6.47m-2.58 3.51a6.63 6.63 0 0 0 6.11 3.51m27.29-11A12.67 12.67 0 1 0 70.9 42.23a12.67 12.67 0 0 0-12.67-12.68zm-6.4 24.61L40.23 83.69s2.11 9.24 17.88 9.24 18.14-9.24 18.14-9.24l-12-29.59M49.06 33.48s5.14 10.5 23.17 2.5m-26.67 4.53A6.63 6.63 0 0 0 51.67 37m6.51-10.23a3.23 3.23 0 1 0-3.23 3.22 3.23 3.23 0 0 0 3.22-3.23zM38.38 5.69A12.67 12.67 0 1 0 51.05 18.4 12.67 12.67 0 0 0 38.38 5.69zm9.16 29.7l-3.14-5.1M31.19 68.37a31 31 0 0 0 7.06.74 31 31 0 0 0 7.3-.8M29.1 34.83l2.88-4.54m-2.77-20.6s2.24 9.36 23.17 6.47m-26.68.53a6.63 6.63 0 0 0 6.15-3.52" fill="none" stroke="#79a13f" stroke-miterlimit="10"/></svg>