<svg xmlns="http://www.w3.org/2000/svg" viewBox="0 0 143 80.34">
  <title>hospital</title>
  <polygon points="108.5 79.84 34.5 79.84 34.5 12.97 70.88 0.53 108.5 12.97 108.5 79.84" style="fill: none;stroke: #79a13f;stroke-miterlimit: 10"/>
  <polygon points="142.5 76.84 108.5 76.84 108.5 23.84 139.33 23.84 142.5 23.84 142.5 76.84" style="fill: none;stroke: #79a13f;stroke-miterlimit: 10"/>
  <rect x="40.5" y="30.84" width="16" height="16" style="fill: none;stroke: #79a13f;stroke-miterlimit: 10"/>
  <rect x="85.5" y="30.84" width="16" height="16" style="fill: none;stroke: #79a13f;stroke-miterlimit: 10"/>
  <rect x="40.5" y="49.84" width="16" height="17" style="fill: none;stroke: #79a13f;stroke-miterlimit: 10"/>
  <rect x="85.5" y="49.84" width="16" height="17" style="fill: none;stroke: #79a13f;stroke-miterlimit: 10"/>
  <rect x="117.5" y="31.84" width="16" height="16" style="fill: none;stroke: #79a13f;stroke-miterlimit: 10"/>
  <rect x="117.5" y="51.84" width="16" height="16" style="fill: none;stroke: #79a13f;stroke-miterlimit: 10"/>
  <polygon points="34.5 76.84 0.5 76.84 0.5 23.84 17.36 23.84 34.5 23.84 34.5 76.84" style="fill: none;stroke: #79a13f;stroke-miterlimit: 10"/>
  <rect x="9.5" y="31.84" width="16" height="16" style="fill: none;stroke: #79a13f;stroke-miterlimit: 10"/>
  <rect x="9.5" y="51.84" width="16" height="16" style="fill: none;stroke: #79a13f;stroke-miterlimit: 10"/>
  <rect x="62.5" y="30.84" width="16" height="16" style="fill: none;stroke: #79a13f;stroke-miterlimit: 10"/>
  <rect x="62.5" y="49.84" width="16" height="30" style="fill: none;stroke: #79a13f;stroke-miterlimit: 10"/>
  <polygon points="76.6 13.59 72.87 13.59 72.87 9.85 69.13 9.85 69.13 13.59 65.4 13.59 65.4 17.32 69.13 17.32 69.13 21.05 72.87 21.05 72.87 17.32 76.6 17.32 76.6 13.59" style="fill: none;stroke: #79a13f;stroke-miterlimit: 10"/>
</svg>
