<svg xmlns="http://www.w3.org/2000/svg" viewBox="0 0 99.23 99.23">
  <title>investing</title>
  <path d="M47.82,61.4V59.46a6.7,6.7,0,0,1-3.24-.88l.54-1.88a6.32,6.32,0,0,0,3.12.88c1.26,0,2.12-.62,2.12-1.58s-.7-1.48-2.18-2c-2.1-.76-3.46-1.72-3.46-3.58A3.48,3.48,0,0,1,47.94,47V45h1.64v1.86a6.39,6.39,0,0,1,2.76.66l-.54,1.84a6,6,0,0,0-2.72-.68c-1.4,0-1.9.72-1.9,1.4s.72,1.28,2.42,2c2.24.84,3.24,1.92,3.24,3.7a3.65,3.65,0,0,1-3.38,3.56V61.4Z" transform="translate(0.66 -3.85)" style="fill: #79a13f"/>
  <rect x="19.9" y="35.05" width="59" height="29" style="fill: none;stroke: #79a13f;stroke-miterlimit: 10"/>
  <path d="M75.14,46.43a4.5,4.5,0,0,1-4.5-4.5v0h-44v0a4.49,4.49,0,0,1-4.4,4.49v14a4.49,4.49,0,0,1,4.4,4.47h44a4.5,4.5,0,0,1,4.5-4.48h.1v-14Z" transform="translate(0.66 -3.85)" style="fill: none;stroke: #79a13f;stroke-miterlimit: 10"/>
  <circle cx="22.9" cy="38.15" r="0.5" style="fill: none;stroke: #79a13f;stroke-miterlimit: 10"/>
  <circle cx="75.9" cy="38.15" r="0.5" style="fill: none;stroke: #79a13f;stroke-miterlimit: 10"/>
  <circle cx="75.9" cy="61.15" r="0.5" style="fill: none;stroke: #79a13f;stroke-miterlimit: 10"/>
  <circle cx="22.9" cy="61.15" r="0.5" style="fill: none;stroke: #79a13f;stroke-miterlimit: 10"/>
  <line x1="57.84" y1="49.83" x2="66.16" y2="49.83" style="fill: none;stroke: #79a13f;stroke-miterlimit: 10"/>
  <line x1="31.84" y1="49.83" x2="40.16" y2="49.83" style="fill: none;stroke: #79a13f;stroke-miterlimit: 10"/>
  <path d="M89.87,80.63a49.12,49.12,0,0,1-90-27.16" transform="translate(0.66 -3.85)" style="fill: none;stroke: #79a13f;stroke-miterlimit: 10"/>
  <path d="M9.06,24.81a49.12,49.12,0,0,1,89,28.66" transform="translate(0.66 -3.85)" style="fill: none;stroke: #79a13f;stroke-miterlimit: 10"/>
  <polyline points="19.33 21.23 9.39 21.23 9.39 11.29" style="fill: none;stroke: #79a13f;stroke-miterlimit: 10"/>
  <polyline points="80.88 76.57 90.83 76.57 90.83 86.51" style="fill: none;stroke: #79a13f;stroke-miterlimit: 10"/>
</svg>
