<svg xmlns="http://www.w3.org/2000/svg" viewBox="0 0 84 85.65">
  <title>leverage</title>
  <text transform="translate(5 49.95)" style="font-size: 20px;fill: #79a13f;font-family: MyriadPro-Semibold, Myriad Pro;font-weight: 700">$</text>
  <path d="M85.5,32.5h-9v-13h9Zm-5-13h-2v3.43l1-.6,1,.6Zm-2.5,6h6m-6,2h6m-6,2h4m1-8h1m-70,25H8.26a10.35,10.35,0,0,0,10,10,10.35,10.35,0,0,0,10-10H24M18.26,24.65,8.26,46.5m20,0-10-21.85M75,26.5H71.26a10,10,0,0,0,20,0H87m-15.74,0,10-21.85m10,21.85-10-21.85M49.5,7V80M18.26,24.65l63-20M67.5,82A1.5,1.5,0,0,0,66,80.5H33A1.5,1.5,0,0,0,31.5,82h0A1.5,1.5,0,0,0,33,83.5H66A1.5,1.5,0,0,0,67.5,82Zm12,3A1.5,1.5,0,0,0,78,83.5H21A1.5,1.5,0,0,0,19.5,85h0A1.5,1.5,0,0,0,21,86.5H78A1.5,1.5,0,0,0,79.5,85ZM50,1.85a2.5,2.5,0,1,0,2.5,2.5A2.5,2.5,0,0,0,50,1.85Z" transform="translate(-7.76 -1.35)" style="fill: none;stroke: #79a13f;stroke-miterlimit: 10"/>
</svg>
