<svg xmlns="http://www.w3.org/2000/svg" viewBox="0 0 112.32 91.21">
  <title>puzzle</title>
  <path d="M61.8,67.9h0l.4.4v-.4A5.88,5.88,0,0,1,72,63.5a6.1,6.1,0,0,1,1.5,3.9,5.91,5.91,0,0,1-5.9,5.9h-.4l.6.6h0l8.1,8L68.8,89a5.91,5.91,0,0,0-5.9-5.9A5.85,5.85,0,0,0,57,89a5.91,5.91,0,0,0,5.9,5.9h0L54.8,103l-21-21,.1-.1L39.8,76a7.86,7.86,0,0,0,6.9,4.3A7.63,7.63,0,0,0,50,65.8l4.9-4.9h0Zm17-5h0l4.9,4.9a7.63,7.63,0,0,1,14.5,3.3A7.86,7.86,0,0,1,93.9,78l5.9,5.9.1.1,21-21-8.1-8.1h0a5.91,5.91,0,0,1-5.9,5.9,5.85,5.85,0,0,1-5.9-5.9,5.91,5.91,0,0,1,5.9-5.9l-7.1-7.1-8,8.1h0l-.6.6v-.4a5.91,5.91,0,0,0-5.9-5.9,6.1,6.1,0,0,0-3.9,1.5,5.88,5.88,0,0,0,4.4,9.8h.4l-.4.4h0ZM40.3,57.5a7.6,7.6,0,0,1-7.6-7.6,7.5,7.5,0,0,1,4.2-6.8L31,37.2h0l-21,21L32.2,80.4l9.5-9.5a4.48,4.48,0,0,0-.4,2,5.3,5.3,0,1,0,5.3-5.3,4.48,4.48,0,0,0-2,.4l8.6-8.6-6-6A8.07,8.07,0,0,1,40.3,57.5ZM77.1,35.4l-8.7-8.7h.4a5.91,5.91,0,0,0,5.9-5.9A5.83,5.83,0,0,0,68.8,15a5.91,5.91,0,0,0-5.9,5.9v.4l-8.1-8.1-21,21-.7.8-.4.4,9.5,9.5a5.66,5.66,0,0,0-1.8-.3,5.3,5.3,0,1,0,5.3,5.3,6.75,6.75,0,0,0-.2-1.4c0-.2-.1-.3-.1-.5l.5.5,9.2,9.2.4-.4.8-.8,6.8-6.8h0a5.91,5.91,0,0,1-5.9-5.9,5.85,5.85,0,0,1,5.9-5.9A5.91,5.91,0,0,1,69,43.8h0Z" transform="translate(-9.29 -12.49)" style="fill: none;stroke: #79a13f;stroke-miterlimit: 10"/>
</svg>
