<svg xmlns="http://www.w3.org/2000/svg" viewBox="0 0 147 90">
  <title>school_house</title>
  <path d="M80.5,89.5h-60v-58L50,11.5l30.5,20Zm43-49h-43v47h43Zm-85,9h-13v13h13Zm36,0h-13v13h13Zm-36,16h-13v13h13Zm36,0h-13v13h13Zm26-18h-13v13h13Zm0,16h-13v13h13Zm16-16h-13v13h13Zm0,16h-13v13h13Zm-96-23h-43v47h43Zm-23,7h-13v13h13Zm0,16h-13v13h13Zm16-16H.5v13h13Zm0,16H.5v13h13Zm43-14h-13v13h13ZM50,22.67a6.5,6.5,0,1,0,6.5,6.5A6.5,6.5,0,0,0,50,22.67ZM58.5,65.5h-17v24h17ZM49.5,12V0m8,.5h-7v5h7Z" transform="translate(23)" style="fill: none;stroke: #79a13f;stroke-miterlimit: 10"/>
</svg>
