<svg xmlns="http://www.w3.org/2000/svg" viewBox="0 0 131 91">
  <title>scholarships</title>
  <path d="M78.5,89.5h-60V9.5h60Zm-38-80h-14v19l7-4,7,4ZM26,38.5H71m-45,6H69m-43,6H68m-42,6H70m-44,6H69m-43,10H46m-20,6H40m17-61H71m-14,3H71m7,59h36.5V-.5h-60V9m22,0V-.5h-14V9M79,28.5h28m-28,6h26m-26,6h25m-25,6h27m-28,6h27m-26,10h3m11-55h14m-14,3h14M44.5,9V-.5h-60v80H19M6.5-.5h-14v19l7-4,7,4ZM-8,28.5H18m-26,6H19m-27,6H19m-27,6H18m-26,6H18m-26,10H12m-20,6H6m17-61H37" transform="translate(16 1)" style="fill: none;stroke: #79a13f;stroke-miterlimit: 10"/>
</svg>
