<svg xmlns="http://www.w3.org/2000/svg" viewBox="0 0 100.92 96.97">
  <title>thermometre</title>
  <path d="M414.79,253.63V190.92a6.57,6.57,0,0,0-6.55-6.55h-.36a6.57,6.57,0,0,0-6.55,6.55v62.71a14.2,14.2,0,1,0,13.47,0Z" transform="translate(-393.35 -183.86)" style="fill: none;stroke: #79a12c;stroke-miterlimit: 10"/>
  <g>
    <path d="M437.95,202.79v-1.14a4.82,4.82,0,0,1-2-.52l.36-1.4a4.24,4.24,0,0,0,2,.53c.68,0,1.15-.26,1.15-.74s-.38-.74-1.27-1c-1.28-.43-2.16-1-2.16-2.19a2.22,2.22,0,0,1,2-2.14V193h1.17v1.06a4.32,4.32,0,0,1,1.74.4l-.35,1.36a4,4,0,0,0-1.73-.41c-.78,0-1,.34-1,.67s.42.65,1.44,1c1.43.5,2,1.16,2,2.24a2.3,2.3,0,0,1-2.13,2.22v1.22Z" transform="translate(-393.35 -183.86)" style="fill: #79a12c"/>
    <path d="M442.41,201.75v-1.1l1-.91c1.7-1.52,2.53-2.4,2.55-3.31,0-.64-.38-1.14-1.28-1.14a2.83,2.83,0,0,0-1.67.65l-.52-1.31a4.32,4.32,0,0,1,2.55-.8,2.42,2.42,0,0,1,2.73,2.45c0,1.31-.95,2.35-2.08,3.36l-.72.6v0h2.94v1.5Z" transform="translate(-393.35 -183.86)" style="fill: #79a12c"/>
    <path d="M452.3,201.75v-1.86h-3.45V198.7l3-4.75H454v4.57H455v1.37H454v1.86Zm0-3.23V196.8c0-.47,0-.95.06-1.45h0c-.25.5-.46,1-.72,1.45l-1,1.7v0Z" transform="translate(-393.35 -183.86)" style="fill: #79a12c"/>
    <path d="M465.28,198.66c0-1-.07-2.15-.07-3.32h0c-.25,1-.59,2.18-.9,3.13l-1,3.15h-1.43l-.86-3.13c-.26-.95-.54-2.1-.73-3.15h0c0,1.09-.08,2.34-.14,3.35l-.14,3.07h-1.69l.52-8.08h2.44l.79,2.7c.25.94.5,1.94.68,2.89h0c.23-.94.5-2,.77-2.9l.86-2.69h2.39l.44,8.08H465.4Z" transform="translate(-393.35 -183.86)" style="fill: #79a12c"/>
    <path d="M470.49,194.25a.92.92,0,0,1-1,.91.92.92,0,1,1,0-1.83A.91.91,0,0,1,470.49,194.25Zm-1.88,7.5v-5.86h1.82v5.86Z" transform="translate(-393.35 -183.86)" style="fill: #79a12c"/>
    <path d="M471.9,193.23h1.82v8.52H471.9Z" transform="translate(-393.35 -183.86)" style="fill: #79a12c"/>
    <path d="M475.2,193.23H477v8.52H475.2Z" transform="translate(-393.35 -183.86)" style="fill: #79a12c"/>
    <path d="M480.38,194.25a.92.92,0,0,1-1,.91.92.92,0,1,1,0-1.83A.91.91,0,0,1,480.38,194.25Zm-1.88,7.5v-5.86h1.82v5.86Z" transform="translate(-393.35 -183.86)" style="fill: #79a12c"/>
    <path d="M487.58,198.75a2.94,2.94,0,0,1-3.09,3.13,2.87,2.87,0,0,1-3-3,2.93,2.93,0,0,1,3.13-3.11A2.85,2.85,0,0,1,487.58,198.75Zm-4.25.06c0,1,.42,1.76,1.2,1.76s1.16-.71,1.16-1.76c0-.88-.34-1.76-1.16-1.76S483.33,197.95,483.33,198.81Z" transform="translate(-393.35 -183.86)" style="fill: #79a12c"/>
    <path d="M488.71,197.76c0-.73,0-1.36,0-1.87h1.58l.08.8h0a2.15,2.15,0,0,1,1.81-.94c1.2,0,2.1.79,2.1,2.52v3.48h-1.82V198.5c0-.76-.26-1.27-.92-1.27a1,1,0,0,0-.92.68,1.23,1.23,0,0,0-.07.46v3.38h-1.82Z" transform="translate(-393.35 -183.86)" style="fill: #79a12c"/>
  </g>
  <line x1="26.08" y1="13.97" x2="36.28" y2="13.97" style="fill: none;stroke: #79a12c;stroke-miterlimit: 10"/>
  <line x1="26.08" y1="30.97" x2="36.28" y2="30.97" style="fill: none;stroke: #79a12c;stroke-miterlimit: 10"/>
  <line x1="26.08" y1="22.47" x2="31.91" y2="22.47" style="fill: none;stroke: #79a12c;stroke-miterlimit: 10"/>
  <line x1="26.08" y1="47.96" x2="36.28" y2="47.96" style="fill: none;stroke: #79a12c;stroke-miterlimit: 10"/>
  <line x1="26.08" y1="39.46" x2="31.91" y2="39.46" style="fill: none;stroke: #79a12c;stroke-miterlimit: 10"/>
  <line x1="26.08" y1="64.95" x2="36.28" y2="64.95" style="fill: none;stroke: #79a12c;stroke-miterlimit: 10"/>
  <line x1="26.08" y1="56.45" x2="31.91" y2="56.45" style="fill: none;stroke: #79a12c;stroke-miterlimit: 10"/>
  <circle cx="14.98" cy="82.47" r="9" style="fill: none;stroke: #79a12c;stroke-miterlimit: 10;stroke-width: 2px"/>
  <rect x="13.65" y="13.14" width="2" height="61" style="fill: #79a12c"/>
</svg>
